<?xml version="1.0" encoding="UTF-8"?><svg id="Ebene_1" xmlns="http://www.w3.org/2000/svg" viewBox="0 0 219 250.81"><path d="m182.7,51.17c.38,1.21,5.86,1.98,9.33,2.68,3.67.73,16.08,2.73,20.1,3.7,4.02.97,7.52,1.94,6.77,2.83-.74.89-6.03.45-8.71.3-2.68-.15-27.84-1.34-30-1.19-2.16.15-3.2,1.12-4.54,4.39-1.34,3.27-3.13,4.76-5.81,7.15-2.68,2.38-4.02,7.29-5.51,11.91-1.49,4.61-2.08,9.97-2.68,16.52-.6,6.55-.89,8.19-5.21,18.61-4.32,10.42-15.35,16.51-15.7,18.27-.22,1.12.86.86,3.68,1,2.83.15,4.58.67,5.47,2.16.89,1.49,2.53,2.83,3.42,5.36.89,2.53,1.04,5.06-1.34,5.36,0,0-.3,2.68-3.87,1.64,0,0-2.08,1.34-3.87,1.04-1.79-.3-1.94-1.64-1.94-1.64,0,0-2.23-.6-2.98-2.68-.74-2.08,1.49.45,3.42.6,0,0,0-.6,1.34-.74,1.34-.15.89-2.98,1.04-4.32.15-1.34-1.64-2.68-2.53-2.53-.89.15-5.02,1.49-7.26-1.19,0,0-.04,1.64-1.53,4.47,0,0,33.89,79.09,38.85,89.02,4.96,9.92,6.55,15.28,4.96,16.28-1.59.99-6.95-6.75-6.95-6.75,0,0,2.38,6.35.2,7.34-2.18.99-7.94-9.53-9.92-13.7,0,0,.79,4.17-1.19,4.57-1.98.4-6.75-13.1-10.32-22.63,0,0,0,1.59-1.59,1.98-1.59.4-4.17-4.96-10.32-24.61,0,0,1.79,6.55-.4,7.15-2.18.6-6.75-15.88-10.52-35.73,0,0-1.19,0-3.37-4.96s-1.39-9.33-2.38-12.31-.4-6.55-2.98-13.3c-2.58-6.75-3.18-11.11-3.57-15.48-.4-4.37-1.39-5.36-1.59-12.9,0,0-1.98,1.39-6.15.4,0,0-2.78.79-6.15-2.18,0,0-2.18.2-5.76-2.98,0,0-3.57-.2-5.76-4.96,0,0-3.18,0-5.95-4.37,0,0-3.18,0-6.55-4.17,0,0-2.58-.6-6.35-4.76,0,0-4.56-.99-8.14-5.95,0,0-4.76-.2-8.93-5.95,0,0-4.37-.2-8.73-6.55,0,0-5.16-.79-8.14-6.75,0,0-5.76.4-9.33-8.53,0,0-5.95-.6-10.32-9.33,0,0-7.15-2.58-10.92-10.32,0,0-1.39-1.98-4.17-4.17-2.78-2.18-1.19-3.18,2.98-2.58,4.17.6,34.14,7.94,51.6,15.08s22.23,9.13,24.81,10.72c0,0-2.78-1.19-3.37-7.54,0,0-3.97-2.38-3.57-9.33,0,0-4.37-3.77-3.57-11.11,0,0-3.37-4.17-2.58-10.92,0,0-2.18-1.98-1.98-5.16.2-3.18-2.18-5.76,0-7.15,2.18-1.39,5.95,2.98,11.11,7.15,5.16,4.17,12.9,7.54,21.04,15.08,8.14,7.54,14.49,17.27,19.25,24.02,4.76,6.75,6.95,7.54,9.73,11.31,2.78,3.77,3.37,9.92,3.37,9.92,0,0,4.37-2.78,8.14-8.14,3.77-5.36,2.58-12.31,10.32-17.47,7.74-5.16,17.22-3.05,23.42-.79,4.37,1.59,8.63,3.57,10.62,9.82Z" style="fill:#010101;"/></svg>